<?xml version="1.0" encoding="iso-8859-1"?>
<!-- Uploaded to: SVG Repo, www.svgrepo.com, Generator: SVG Repo Mixer Tools -->
<svg height="800px" width="800px" version="1.1" id="Layer_1" xmlns="http://www.w3.org/2000/svg" xmlns:xlink="http://www.w3.org/1999/xlink" 
	 viewBox="0 0 447.766 447.766" xml:space="preserve">
<g transform="translate(0 -540.36)">
	<path style="fill:#FFE3A7;" d="M22.023,889.276v90.51c0-30.171,0.104-60.341,0.266-90.51H22.023z M22.023,979.786v0.748
		c0-0.254,0.027-0.503,0.066-0.748H22.023z M35.615,896.839v77.695h379.158v-77.695C414.773,896.839,35.615,896.839,35.615,896.839z
		"/>
	<g>
		<path style="fill:#E5BE8C;" d="M25.519,908.196h389.679v3.495H25.519L25.519,908.196z"/>
		<path style="fill:#E5BE8C;" d="M25.519,921.455h389.679v3.495H25.519L25.519,921.455z"/>
		<path style="fill:#E5BE8C;" d="M25.519,934.713h389.679v3.495H25.519L25.519,934.713z"/>
		<path style="fill:#E5BE8C;" d="M25.519,947.972h389.679v3.495H25.519L25.519,947.972z"/>
		<path style="fill:#E5BE8C;" d="M25.519,961.23h389.679v3.495H25.519L25.519,961.23z"/>
	</g>
	<path style="fill:#935643;" d="M34.561,540.36c-4.314,0-7.74,2.676-7.787,6c-2.775,144.477-4.75,288.933-4.75,433.426h0.066
		c-0.039,0.245-0.066,0.494-0.066,0.748v1.592c0,3.324,3.473,6,7.787,6h388.141c4.314,0,7.789-2.676,7.789-6v-1.592
		c0-3.324-3.475-6-7.789-6H35.615v-77.695h382.338c4.314,0,7.889-2.678,7.787-6L415.134,546.36c-0.102-3.322-3.473-6-7.787-6H34.561
		z"/>
	<path style="fill:#D9C18E;" d="M35.005,896.842v4.955H35.6v72.428h4.955v-72.428H414.69v-4.955H35.005L35.005,896.842z"/>
	<path style="fill:#67362A;" d="M34.56,540.36c-4.314,0-7.74,2.676-7.787,6l-4.75,338.641v5.838v3.379v17.033v68.535h0.066
		c-0.039,0.245-0.066,0.494-0.066,0.748v1.592c0,3.324,3.473,6,7.787,6h60.461v-13.592H35.615v-77.695h54.656V540.36
		C90.271,540.36,34.56,540.36,34.56,540.36z"/>
	<path style="fill:#F6851F;" d="M115.414,896.842H65.202l-0.282,63.341l25.305-23.906l24.907,23.906L115.414,896.842z"/>
	<path style="fill:#EF771F;" d="M90.318,896.842l-0.083,39.445l-0.012-0.01l-25.306,23.906l0.282-63.341L90.318,896.842z"/>
</g>
</svg>